<svg width="14" height="7" viewBox="0 0 14 7" fill="none" xmlns="http://www.w3.org/2000/svg">
<path d="M6.62744 6.48096C6.88907 6.47461 7.11332 6.39209 7.31515 6.2207L13.0037 1.28223C13.1681 1.13623 13.2578 0.964844 13.2578 0.755371C13.2578 0.330078 12.8691 0 12.3683 0C12.1291 0 11.9048 0.0825195 11.7329 0.228516L6.62744 4.67188L1.52198 0.228516C1.35006 0.0825195 1.13328 0 0.886602 0C0.385774 0 -0.00292908 0.330078 -0.00292908 0.755371C-0.00292908 0.958496 0.0867715 1.13623 0.251223 1.28223L5.94721 6.2207C6.14156 6.39844 6.36581 6.48096 6.62744 6.48096Z" fill="#6E6E73"/>
</svg>
