<svg width="18" height="10" viewBox="0 0 18 10" fill="none" xmlns="http://www.w3.org/2000/svg">
<path d="M9.00518 -2.5105e-07C9.26425 -2.5105e-07 9.52332 0.102249 9.69948 0.296523L17.7202 8.40491C17.8964 8.57873 18 8.80368 18 9.0593C18 9.591 17.5959 10 17.057 10C16.7979 10 16.5596 9.89775 16.3834 9.73415L9.00518 2.29039L1.61658 9.73415C1.45078 9.89775 1.21244 10 0.943005 10C0.404145 10 0 9.591 0 9.0593C0 8.80368 0.103627 8.57873 0.279793 8.39468L8.30052 0.296523C8.49741 0.102249 8.73575 -2.5105e-07 9.00518 -2.5105e-07Z" fill="#6E6E73"/>
</svg>
