<svg width="18" height="10" viewBox="0 0 18 10" fill="none" xmlns="http://www.w3.org/2000/svg">
<path d="M9.00518 10C9.26425 10 9.52332 9.89775 9.69948 9.70348L17.7202 1.59509C17.8964 1.42127 18 1.19632 18 0.940695C18 0.408998 17.5959 0 17.057 0C16.7979 0 16.5596 0.102249 16.3834 0.265849L9.00518 7.70961L1.61658 0.265849C1.45078 0.102249 1.21244 0 0.943005 0C0.404145 0 0 0.408998 0 0.940695C0 1.19632 0.103627 1.42127 0.279793 1.60532L8.30052 9.70348C8.49741 9.89775 8.73575 10 9.00518 10Z" fill="#6E6E73"/>
</svg>
