<svg width="108" height="108" viewBox="0 0 108 108" fill="none" xmlns="http://www.w3.org/2000/svg">
<path d="M100.937 6.7065L103.78 5.74728L103.372 4.53868L102.218 3.99389L100.937 6.7065ZM16.7806 93.4678L14.4403 95.3447C14.5551 95.488 14.6829 95.6203 14.822 95.7402L16.7806 93.4678ZM49.7651 81.0709C48.4741 82.1095 48.2696 83.9979 49.3082 85.2888C50.3468 86.5798 52.2352 86.7843 53.5261 85.7457L49.7651 81.0709ZM57.9241 46.0955C56.7613 47.2758 56.7756 49.1752 57.9559 50.338C59.1362 51.5007 61.0357 51.4865 62.1984 50.3061L57.9241 46.0955ZM98.0946 7.66572C101.457 17.6311 101.192 30.4473 97.9366 43.5893C94.6906 56.693 88.5413 69.8282 80.4877 80.3242C72.4109 90.8505 62.6173 98.4745 52.1659 101.045C41.8887 103.574 30.5032 101.335 18.7393 91.1955L14.822 95.7402C27.8565 106.975 41.1931 109.924 53.5992 106.872C65.831 103.863 76.6818 95.1406 85.2479 83.9767C93.8371 72.7826 100.329 58.8838 103.761 45.032C107.182 31.2186 107.63 17.1579 103.78 5.74728L98.0946 7.66572ZM102.218 3.99389C92.0673 -0.800962 78.5612 -1.01355 65.0412 1.94847C51.4534 4.92534 37.438 11.1934 26.0464 19.8807C14.6749 28.5526 5.68439 39.8225 2.62373 52.8792C-0.469639 66.0755 2.61262 80.5965 14.4403 95.3447L19.121 91.591C8.25881 78.0466 5.85707 65.3756 8.46538 54.2486C11.1064 42.982 19.0032 32.7974 29.6848 24.6517C40.3461 16.5213 53.5491 10.6085 66.3253 7.80946C79.1692 4.99555 91.1723 5.41196 99.6558 9.41911L102.218 3.99389ZM19.5364 92.2822C17.2856 87.0508 17.8205 79.7897 21.2189 71.3009C24.5858 62.8907 30.5972 53.7206 38.5317 45.0378C54.4385 27.6307 77.576 12.7104 101.317 9.68239L100.558 3.73061C75.0067 6.98944 50.656 22.8755 34.1025 40.9903C25.8068 50.0684 19.3449 59.8381 15.6487 69.071C11.9839 78.2253 10.8657 87.3107 14.0249 94.6535L19.5364 92.2822ZM100.937 6.7065C97.9428 6.5218 97.9429 6.52029 97.943 6.51892C97.943 6.51866 97.9431 6.51743 97.9431 6.51691C97.9432 6.51587 97.9432 6.51542 97.9432 6.51555C97.9432 6.51582 97.943 6.51843 97.9427 6.52337C97.942 6.53324 97.9406 6.5524 97.9383 6.58072C97.9338 6.63735 97.9258 6.73055 97.9131 6.8591C97.8878 7.11623 97.8436 7.5147 97.7704 8.04479C97.624 9.10504 97.3618 10.6913 96.9025 12.7258C95.9839 16.7948 94.2776 22.6554 91.1351 29.6875C84.8565 43.7374 72.8187 62.5234 49.7651 81.0709L53.5261 85.7457C77.3596 66.5709 89.9676 47.006 96.613 32.1355C99.9324 24.7075 101.758 18.4656 102.755 14.0471C103.254 11.8379 103.546 10.0842 103.714 8.86536C103.798 8.25593 103.851 7.78012 103.884 7.44783C103.901 7.28168 103.912 7.1514 103.919 7.05822C103.923 7.01163 103.926 6.97432 103.928 6.94643C103.929 6.93248 103.929 6.92089 103.93 6.91168C103.93 6.90708 103.931 6.90307 103.931 6.89965C103.931 6.89794 103.931 6.89583 103.931 6.89498C103.931 6.89301 103.931 6.8912 100.937 6.7065ZM98.7999 4.60117L57.9241 46.0955L62.1984 50.3061L103.074 8.81183L98.7999 4.60117Z" fill="#8B70F6"/>
</svg>
