<svg width="27" height="27" viewBox="0 0 27 27" fill="none" xmlns="http://www.w3.org/2000/svg">
<path d="M13.5 27C20.9036 27 27 20.9036 27 13.5C27 6.1093 20.8907 0 13.4871 0C6.09636 0 0 6.1093 0 13.5C0 20.9036 6.09636 27 13.5 27ZM13.5 24.036C7.66251 24.036 2.97699 19.3375 2.97699 13.5C2.97699 7.66251 7.64957 2.96405 13.4871 2.96405C19.3375 2.96405 24.023 7.66251 24.036 13.5C24.0489 19.3375 19.3375 24.036 13.5 24.036ZM12.1151 19.6611C12.6069 19.6611 13.047 19.4022 13.3317 18.9621L19.0268 10.1218C19.2081 9.83701 19.3504 9.51342 19.3504 9.21572C19.3504 8.51678 18.7421 8.05081 18.082 8.05081C17.6548 8.05081 17.2795 8.2838 16.9947 8.74976L12.0762 16.6453L9.77229 13.7589C9.46165 13.3576 9.13806 13.2023 8.73682 13.2023C8.05081 13.2023 7.49425 13.7459 7.49425 14.4449C7.49425 14.7685 7.62368 15.0662 7.85666 15.3639L10.8466 18.9751C11.209 19.4281 11.6103 19.6611 12.1151 19.6611Z" fill="#03A10E"/>
</svg>
