<svg width="19" height="19" viewBox="0 0 19 19" fill="none" xmlns="http://www.w3.org/2000/svg">
<path d="M7.54639 18.7432C8.08984 18.7432 8.5 18.5176 8.79736 18.0767L18.436 3.04443C18.6514 2.71631 18.7334 2.4292 18.7334 2.15234C18.7334 1.44482 18.2412 0.952637 17.5234 0.952637C17.021 0.952637 16.7236 1.12695 16.416 1.60889L7.50537 15.7593L2.91162 9.86328C2.61426 9.46338 2.30664 9.29932 1.85547 9.29932C1.1377 9.29932 0.614746 9.81201 0.614746 10.5195C0.614746 10.8271 0.727539 11.1245 0.983887 11.4424L6.29541 18.0869C6.6543 18.5278 7.03369 18.7432 7.54639 18.7432Z" fill="#1D1D1F"/>
</svg>
