<svg width="26" height="46" viewBox="0 0 26 46" fill="none" xmlns="http://www.w3.org/2000/svg">
<path d="M0 23.013C0 23.8961 0.33235 24.7013 1.02262 25.3506L20.9381 45.1429C21.5005 45.7143 22.1908 46 23.0344 46C24.6962 46 26 44.6753 26 43.013C26 42.1818 25.6676 41.4026 25.1052 40.8312L7.13274 23.013L25.1052 5.19481C25.6676 4.5974 26 3.84416 26 3.01299C26 1.32468 24.6962 0 23.0344 0C22.2163 0 21.5005 0.311688 20.9381 0.883117L1.02262 20.6753C0.33235 21.3506 0 22.1299 0 23.013Z" fill="#FBFBFD"/>
</svg>
