<svg width="26" height="46" viewBox="0 0 26 46" fill="none" xmlns="http://www.w3.org/2000/svg">
<path d="M26 22.987C26 22.1039 25.6676 21.2987 24.9774 20.6493L5.06195 0.857142C4.49951 0.285713 3.80924 -1.33878e-06 2.96558 -1.33878e-06C1.30383 -1.33878e-06 0 1.32467 0 2.98701C0 3.81818 0.33235 4.5974 0.894789 5.16883L18.8673 22.987L0.894789 40.8052C0.33235 41.4026 0 42.1558 0 42.987C0 44.6753 1.30383 46 2.96558 46C3.78368 46 4.49951 45.6883 5.06195 45.1169L24.9774 25.3247C25.6676 24.6494 26 23.8701 26 22.987Z" fill="#FBFBFD"/>
</svg>
