<svg width="108" height="108" viewBox="0 0 108 108" fill="none" xmlns="http://www.w3.org/2000/svg">
<path d="M12.445 104.548L12.4328 104.544L12.4206 104.541C7.78096 103.184 4.56114 99.4248 3.43052 94.6227C3.35176 94.2878 3.32663 93.9148 3.31644 93.7635C3.31599 93.7568 3.31557 93.7506 3.31517 93.7448C3.29855 93.5011 3.28397 93.1989 3.27071 92.8548C3.24404 92.1625 3.21986 91.2233 3.19782 90.0831C3.15365 87.7985 3.11702 84.65 3.08776 80.9327C3.02923 73.4951 3 63.7458 3 54.0003C3 44.2548 3.02923 34.5055 3.08776 27.0679C3.11702 23.3505 3.15365 20.202 3.19782 17.9174C3.21986 16.7772 3.24404 15.8381 3.27071 15.1457C3.28397 14.8016 3.29855 14.4995 3.31517 14.2558L3.31644 14.237C3.32663 14.0857 3.35176 13.7128 3.43052 13.3779C4.56114 8.57573 7.78096 4.8168 12.4206 3.46002L12.44 3.45433L12.4596 3.4489C13.1164 3.26644 13.9706 3.20802 15.0555 3.16496C16.2535 3.11739 18.0878 3.084 20.9396 3.05998C26.6549 3.01185 36.5954 3.00058 54.0227 3.00058C56.1327 3.00058 58.134 3.00041 60.0324 3.00025C77.4946 2.9988 86.252 2.99807 90.8566 3.13462C93.3529 3.20865 94.8931 3.32533 95.9977 3.58575C97.1038 3.84651 97.858 4.30585 98.2505 4.54488C98.3198 4.58707 98.3778 4.62239 98.4245 4.64854L98.4355 4.65472L98.4465 4.661C100.418 5.78769 102.437 7.99076 103.443 10.1007C103.479 10.1751 103.521 10.2574 103.567 10.3478C103.813 10.8327 104.177 11.5499 104.41 12.5151C104.668 13.5828 104.788 14.9532 104.863 17.0707C105.002 20.9731 105.001 28.2211 105 42.6243C105 44.05 105 45.5458 105 47.1154C105 48.64 105 50.1209 105 51.5593C105.001 66.587 105.002 76.9706 104.864 83.9971C104.789 87.8423 104.671 90.7505 104.482 92.8943C104.305 94.8916 104.041 96.6578 103.445 97.8969C102.438 100.008 100.419 102.212 98.4465 103.34L98.4347 103.346C98.3977 103.367 98.3598 103.389 98.321 103.411C97.82 103.695 97.1696 104.065 96.3266 104.334C95.4274 104.621 94.44 104.76 93.1837 104.844C90.8381 105 86.8219 105 79.2149 105C78.8686 105 78.5148 105 78.1534 105H29.8919C23.3053 105 19.3732 104.989 16.9579 104.94C14.6779 104.894 13.4062 104.82 12.445 104.548Z" stroke="#8B70F7" stroke-width="6"/>
<path d="M14.2386 38.6171C13.9946 38.7075 13.6084 39.0915 13.3644 39.4304C12.9375 40.0404 12.9375 40.1081 12.9375 52.6459V65.274L13.527 65.9969L14.1166 66.7424L18.711 66.8102C23.834 66.878 24.3219 66.765 24.8301 65.4322C25.196 64.4608 25.013 63.5797 24.2812 62.902C23.6916 62.3598 23.6103 62.3373 20.3373 62.3373H17.0033V58.6098V54.8824H20.0527H23.1021L23.7526 54.2272C24.3015 53.6851 24.4235 53.414 24.4235 52.6233C24.4235 51.8326 24.3015 51.5615 23.7526 51.0194L23.1021 50.3642H20.0527H17.0033V46.6368V42.9094H20.3373C23.6103 42.9094 23.6916 42.8868 24.2812 42.3446C25.013 41.6669 25.196 40.7858 24.8301 39.8144C24.3422 38.5042 23.834 38.3912 18.9956 38.4138C16.6171 38.4138 14.4622 38.5042 14.2386 38.6171Z" fill="#8B70F7"/>
<path fill-rule="evenodd" clip-rule="evenodd" d="M39.2804 38.7986C38.9551 39.0471 38.5688 39.3634 38.4469 39.5441C38.02 40.1315 30.8438 63.8968 30.8438 64.7326C30.8438 66.2462 32.3278 67.2402 33.6085 66.5625C34.4014 66.1332 34.6656 65.6137 35.4381 62.948L36.0074 60.9826L40.3578 61.0278L44.7083 61.0955L45.4198 63.3546C45.8264 64.5971 46.3346 65.8396 46.5582 66.1107C47.6967 67.5113 49.9532 66.4947 49.9532 64.5519C49.9532 63.7838 42.6347 39.9056 42.2688 39.4312C41.3946 38.392 40.2562 38.1435 39.2804 38.7986ZM43.2446 56.3063C43.2446 56.216 42.6347 54.0699 41.8825 51.5623C41.1303 49.0322 40.4595 46.9764 40.3985 46.9764C40.2968 46.9764 37.5524 55.9675 37.5524 56.3063C37.5524 56.3967 38.8331 56.4645 40.3985 56.4645C41.9638 56.4645 43.2446 56.3967 43.2446 56.3063Z" fill="#8B70F6"/>
<mask id="path-4-inside-1_12908_12567" fill="white">
<path d="M61.3331 38.7993C57.8975 39.7932 55.7629 42.5945 55.7629 46.0734C55.7629 48.5584 56.9827 50.9756 58.731 51.9696C59.1579 52.2181 61.0078 53.0765 62.8171 53.8898C66.4764 55.5163 67.4725 56.1488 68.0417 57.2106C69.5258 59.8989 66.3138 62.9034 62.7358 62.1579C61.1095 61.8191 59.6255 61.0284 58.426 59.8989C57.8975 59.3793 57.2266 58.8823 56.9623 58.8145C55.7426 58.4756 54.5228 59.673 54.5635 61.1639C54.5838 61.8868 54.7668 62.1805 55.8239 63.2874C57.3689 64.914 59.4425 66.0209 61.821 66.5405C63.366 66.8793 63.8743 66.9019 65.2363 66.676C68.2044 66.2016 70.5829 64.3944 71.8433 61.6609C72.3312 60.5766 72.4125 60.1699 72.4125 58.4982C72.4125 56.307 72.0466 55.313 70.6642 53.6413C69.4648 52.1955 68.306 51.45 64.7891 49.8912C60.5403 48.0162 60.1947 47.8129 59.9304 46.9545C59.4018 45.2376 60.4996 43.611 62.5325 43.1141C64.3215 42.6848 66.1105 43.2044 68.2654 44.7406C69.4851 45.599 70.3186 45.599 71.1115 44.7406C71.579 44.221 71.701 43.8821 71.701 43.1141C71.701 42.3234 71.579 42.0523 70.9895 41.4198C69.4648 39.8384 65.9072 38.3926 63.5693 38.4152C63.0611 38.4152 62.065 38.5959 61.3331 38.7993Z"/>
</mask>
<path d="M61.3331 38.7993C57.8975 39.7932 55.7629 42.5945 55.7629 46.0734C55.7629 48.5584 56.9827 50.9756 58.731 51.9696C59.1579 52.2181 61.0078 53.0765 62.8171 53.8898C66.4764 55.5163 67.4725 56.1488 68.0417 57.2106C69.5258 59.8989 66.3138 62.9034 62.7358 62.1579C61.1095 61.8191 59.6255 61.0284 58.426 59.8989C57.8975 59.3793 57.2266 58.8823 56.9623 58.8145C55.7426 58.4756 54.5228 59.673 54.5635 61.1639C54.5838 61.8868 54.7668 62.1805 55.8239 63.2874C57.3689 64.914 59.4425 66.0209 61.821 66.5405C63.366 66.8793 63.8743 66.9019 65.2363 66.676C68.2044 66.2016 70.5829 64.3944 71.8433 61.6609C72.3312 60.5766 72.4125 60.1699 72.4125 58.4982C72.4125 56.307 72.0466 55.313 70.6642 53.6413C69.4648 52.1955 68.306 51.45 64.7891 49.8912C60.5403 48.0162 60.1947 47.8129 59.9304 46.9545C59.4018 45.2376 60.4996 43.611 62.5325 43.1141C64.3215 42.6848 66.1105 43.2044 68.2654 44.7406C69.4851 45.599 70.3186 45.599 71.1115 44.7406C71.579 44.221 71.701 43.8821 71.701 43.1141C71.701 42.3234 71.579 42.0523 70.9895 41.4198C69.4648 39.8384 65.9072 38.3926 63.5693 38.4152C63.0611 38.4152 62.065 38.5959 61.3331 38.7993Z" fill="#8B70F7"/>
<path d="M61.3331 38.7993L59.6656 33.0356L59.6963 33.0267L59.7271 33.0182L61.3331 38.7993ZM58.731 51.9696L61.6964 46.7536L61.723 46.7687L61.7493 46.7841L58.731 51.9696ZM62.8171 53.8898L60.3801 59.3725L60.3687 59.3675L60.3573 59.3623L62.8171 53.8898ZM68.0417 57.2106L62.789 60.1103L62.7712 60.078L62.7537 60.0455L68.0417 57.2106ZM58.426 59.8989L54.3126 64.2669L54.2658 64.2228L54.2199 64.1777L58.426 59.8989ZM56.9623 58.8145L55.4719 64.6265L55.414 64.6116L55.3563 64.5956L56.9623 58.8145ZM54.5635 61.1639L48.5659 61.3326L48.5657 61.3275L54.5635 61.1639ZM55.8239 63.2874L60.1631 59.1436L60.1686 59.1494L60.1741 59.1552L55.8239 63.2874ZM61.821 66.5405L63.1015 60.6787L63.1064 60.6798L61.821 66.5405ZM65.2363 66.676L64.2546 60.7569L64.272 60.754L64.2893 60.7512L65.2363 66.676ZM71.8433 61.6609L77.3149 64.1229L77.3036 64.1482L77.292 64.1733L71.8433 61.6609ZM70.6642 53.6413L75.282 49.8104L75.2881 49.8177L70.6642 53.6413ZM64.7891 49.8912L67.2115 44.402L67.2203 44.4059L64.7891 49.8912ZM62.5325 43.1141L61.1077 37.2857L61.1202 37.2826L61.1327 37.2796L62.5325 43.1141ZM68.2654 44.7406L64.8121 49.6472L64.7973 49.6368L64.7825 49.6262L68.2654 44.7406ZM71.1115 44.7406L75.5715 48.7541L75.5455 48.783L75.5192 48.8115L71.1115 44.7406ZM70.9895 41.4198L75.3088 37.2552L75.344 37.2918L75.3787 37.3289L70.9895 41.4198ZM63.5693 38.4152L63.6273 44.4149L63.5983 44.4152H63.5693V38.4152ZM63.0006 44.5629C62.4293 44.7282 62.1563 44.9785 62.0258 45.1492C61.8986 45.3155 61.7629 45.5915 61.7629 46.0734H49.7629C49.7629 39.8407 53.7436 34.749 59.6656 33.0356L63.0006 44.5629ZM61.7629 46.0734C61.7629 46.2071 61.7798 46.3553 61.8158 46.5059C61.8521 46.6574 61.9016 46.7856 61.9498 46.8813C61.9991 46.9791 62.0306 47.0108 62.014 46.9921C61.9986 46.9748 61.9031 46.8711 61.6964 46.7536L55.7655 57.1855C51.6818 54.8637 49.7629 50.1298 49.7629 46.0734H61.7629ZM61.7493 46.7841C61.645 46.7233 61.658 46.7364 61.9332 46.8711C62.1514 46.978 62.4447 47.1177 62.7993 47.2837C63.5056 47.6144 64.3911 48.019 65.277 48.4172L60.3573 59.3623C58.7225 58.6275 56.4862 57.6054 55.7126 57.1551L61.7493 46.7841ZM65.2542 48.407C67.0531 49.2066 68.6036 49.9337 69.8064 50.698C71.2353 51.6061 72.4488 52.7324 73.3298 54.3756L62.7537 60.0455C62.8591 60.242 63.0219 60.4765 63.2261 60.6838C63.4005 60.8608 63.4962 60.9061 63.37 60.8259C63.2338 60.7393 62.9591 60.5814 62.4405 60.3253C61.9296 60.073 61.2656 59.7661 60.3801 59.3725L65.2542 48.407ZM73.2945 54.3109C75.681 58.6338 73.9355 62.9734 71.3814 65.3578C68.8935 67.6804 65.2134 68.803 61.512 68.0318L63.9597 56.2841C63.8362 56.2583 63.551 56.2514 63.1926 56.586C62.9969 56.7687 62.654 57.181 62.4932 57.8838C62.3141 58.6662 62.4433 59.4841 62.789 60.1103L73.2945 54.3109ZM61.512 68.0318C58.7687 67.4602 56.2927 66.1316 54.3126 64.2669L62.5395 55.5309C62.9582 55.9251 63.4503 56.1779 63.9597 56.2841L61.512 68.0318ZM54.2199 64.1777C54.1565 64.1154 54.069 64.0421 54.0235 64.0084C54.0003 63.9912 54.05 64.0304 54.1675 64.1001C54.2272 64.1355 54.3479 64.2047 54.5177 64.2849C54.6599 64.352 54.9994 64.5053 55.4719 64.6265L58.4527 53.0026C59.3828 53.2411 60.0797 53.6547 60.2889 53.7789C60.623 53.977 60.9231 54.1856 61.1667 54.3661C61.6549 54.7277 62.167 55.1628 62.6322 55.62L54.2199 64.1777ZM55.3563 64.5956C57.2086 65.1102 58.7333 64.3299 59.4901 63.588C60.2343 62.8586 60.5863 61.9168 60.5613 61.0004L48.5657 61.3275C48.5001 58.9201 49.4415 56.6341 51.0904 55.018C52.7519 53.3895 55.4963 52.18 58.5684 53.0334L55.3563 64.5956ZM60.5611 60.9953C60.5598 60.9496 60.5506 60.6286 60.4421 60.1933C60.3225 59.7139 60.1379 59.3095 59.9564 59.0056C59.8049 58.752 59.6904 58.6282 59.7461 58.6934C59.7996 58.756 59.9146 58.8834 60.1631 59.1436L51.4847 67.4313C51.0397 66.9653 50.2385 66.1376 49.6534 65.1578C48.7947 63.7197 48.5952 62.3749 48.5659 61.3326L60.5611 60.9953ZM60.1741 59.1552C60.7926 59.8063 61.7468 60.3828 63.1015 60.6787L60.5405 72.4023C57.1382 71.659 53.9453 70.0217 51.4737 67.4197L60.1741 59.1552ZM63.1064 60.6798C63.8332 60.8392 63.9102 60.8278 63.8389 60.8249C63.7131 60.8198 63.703 60.8484 64.2546 60.7569L66.218 72.5952C65.4076 72.7296 64.4623 72.8598 63.3556 72.8152C62.3035 72.7728 61.3539 72.5806 60.5356 72.4012L63.1064 60.6798ZM64.2893 60.7512C65.2748 60.5937 65.969 60.0716 66.3947 59.1485L77.292 64.1733C75.1968 68.7172 71.134 71.8095 66.1833 72.6008L64.2893 60.7512ZM66.3717 59.199C66.4692 58.9822 66.4853 58.9329 66.478 58.9534C66.4597 59.0054 66.4295 59.1069 66.4081 59.224C66.3901 59.3228 66.3943 59.3483 66.4005 59.2303C66.4074 59.0987 66.4125 58.884 66.4125 58.4982H78.4125C78.4125 59.3297 78.4026 60.3391 78.2136 61.3757C78.0002 62.5467 77.6186 63.448 77.3149 64.1229L66.3717 59.199ZM66.4125 58.4982C66.4125 57.7025 66.3371 57.7016 66.4139 57.914C66.4901 58.1249 66.548 58.0788 66.0404 57.4649L75.2881 49.8177C76.1628 50.8754 77.0949 52.1622 77.6997 53.8359C78.305 55.511 78.4125 57.1027 78.4125 58.4982H66.4125ZM66.0464 57.4722C65.8064 57.1829 65.6751 57.0627 65.3645 56.8642C64.8967 56.5653 64.0864 56.1427 62.3579 55.3766L67.2203 44.4059C70.8909 46.0327 73.1467 47.2364 75.282 49.8104L66.0464 57.4722ZM62.3666 55.3805C60.4219 54.5222 58.8283 53.82 57.7659 53.1789C57.153 52.8092 56.2871 52.2161 55.5277 51.2716C54.7026 50.2455 54.3569 49.2424 54.196 48.7198L65.6648 45.1891C65.658 45.167 65.5963 44.9642 65.4688 44.6935C65.3281 44.3948 65.1349 44.0697 64.8795 43.752C64.6326 43.4451 64.3949 43.2287 64.2254 43.0922C64.1429 43.0258 64.0764 42.9783 64.0338 42.9492C63.9914 42.9201 63.9664 42.905 63.9652 42.9043C63.9639 42.9035 63.9796 42.913 64.0172 42.9336C64.0546 42.9541 64.108 42.9825 64.1812 43.0199C64.3307 43.0961 64.5344 43.1953 64.8138 43.3259C65.3813 43.5909 66.1432 43.9306 67.2115 44.402L62.3666 55.3805ZM54.196 48.7198C53.3944 46.1161 53.8255 43.3954 55.3019 41.2139C56.7286 39.1058 58.8865 37.8287 61.1077 37.2857L63.9574 48.9424C64.1456 48.8964 64.7382 48.6811 65.2399 47.9397C65.7913 47.125 65.9378 46.076 65.6648 45.1891L54.196 48.7198ZM61.1327 37.2796C65.2748 36.2858 68.8527 37.7908 71.7482 39.8549L64.7825 49.6262C64.0558 49.1082 63.6913 48.9817 63.6155 48.96C63.591 48.9531 63.6304 48.9665 63.7164 48.9689C63.8047 48.9713 63.8829 48.9603 63.9324 48.9485L61.1327 37.2796ZM71.7186 39.8339C71.9526 39.9986 71.2232 39.3844 69.8485 39.3844C68.1289 39.3844 67.0475 40.2975 66.7037 40.6697L75.5192 48.8115C74.3826 50.0421 72.488 51.3844 69.8485 51.3844C67.554 51.3844 65.7979 50.341 64.8121 49.6472L71.7186 39.8339ZM66.6515 40.727C66.6334 40.7471 66.222 41.199 65.9399 41.9781C65.678 42.7015 65.701 43.2409 65.701 43.1141H77.701C77.701 43.7553 77.663 44.8482 77.2232 46.0629C76.7633 47.3334 76.0571 48.2144 75.5715 48.7541L66.6515 40.727ZM65.701 43.1141C65.701 42.9563 65.6684 43.6679 66.0425 44.5502C66.3783 45.3419 66.8385 45.7662 66.6003 45.5106L75.3787 37.3289C75.73 37.7058 76.546 38.582 77.0901 39.865C77.6726 41.2386 77.701 42.4812 77.701 43.1141H65.701ZM66.6702 45.5843C66.7462 45.6632 66.6825 45.5805 66.3844 45.3982C66.1103 45.2305 65.7475 45.0457 65.3302 44.8765C64.9139 44.7077 64.5083 44.5808 64.1616 44.5015C63.7947 44.4175 63.6179 44.415 63.6273 44.4149L63.5113 32.4155C65.7484 32.3939 68.0405 33.0267 69.8385 33.7556C71.6089 34.4733 73.7335 35.6214 75.3088 37.2552L66.6702 45.5843ZM63.5693 44.4152C63.676 44.4152 63.747 44.4108 63.7707 44.4091C63.798 44.4072 63.8049 44.4061 63.7888 44.4079C63.7538 44.4119 63.6786 44.4221 63.5678 44.4415C63.3356 44.482 63.0965 44.5366 62.9391 44.5803L59.7271 33.0182C60.6502 32.7617 62.2573 32.4152 63.5693 32.4152V44.4152Z" fill="#8B70F6" mask="url(#path-4-inside-1_12908_12567)"/>
<path d="M61.3331 38.7993C57.8975 39.7932 55.7629 42.5945 55.7629 46.0734C55.7629 48.5584 56.9827 50.9756 58.731 51.9696C59.1579 52.2181 61.0078 53.0765 62.8171 53.8898C66.4764 55.5163 67.4725 56.1488 68.0417 57.2106C69.5258 59.8989 66.3138 62.9034 62.7358 62.1579C61.1095 61.8191 59.6255 61.0284 58.426 59.8989C57.8975 59.3793 57.2266 58.8823 56.9623 58.8145C55.7426 58.4756 54.5228 59.6729 54.5635 61.1639C54.5838 61.8868 54.7668 62.1805 55.8239 63.2874C57.3689 64.914 59.4425 66.0209 61.821 66.5405C63.366 66.8793 63.8743 66.9019 65.2363 66.676C68.2044 66.2016 70.5829 64.3944 71.8433 61.6609C72.3312 60.5766 72.4125 60.1699 72.4125 58.4982C72.4125 56.307 72.0466 55.313 70.6642 53.6413C69.4648 52.1955 68.306 51.45 64.7891 49.8912C60.5403 48.0162 60.1947 47.8129 59.9304 46.9545C59.4018 45.2376 60.4996 43.611 62.5325 43.1141C64.3215 42.6848 66.1105 43.2044 68.2654 44.7406C69.4851 45.599 70.3186 45.599 71.1115 44.7406C71.579 44.221 71.701 43.8821 71.701 43.1141C71.701 42.3234 71.579 42.0523 70.9895 41.4198C69.4648 39.8384 65.9072 38.3926 63.5693 38.4152C63.0611 38.4152 62.065 38.5959 61.3331 38.7993Z" fill="#8B70F6"/>
<path d="M78.5118 38.73C77.8003 39.1367 77.4141 39.9047 77.4141 40.8309C77.4141 41.2376 78.5728 43.4289 80.87 47.3144L84.3057 53.188L84.1837 58.8356C84.082 63.6926 84.1227 64.5962 84.387 65.3191C84.9765 66.8779 86.6232 67.2619 87.66 66.1098C88.1072 65.6128 88.1276 65.4321 88.2495 59.2649L88.3715 52.9169L91.6648 47.2919C95.2631 41.1472 95.5071 40.5147 94.6736 39.4529C94.023 38.6171 93.1082 38.3686 92.295 38.7526C91.7868 38.9785 91.1159 39.9499 89.2253 43.1804C87.9039 45.462 86.6842 47.5178 86.5215 47.7437C86.2573 48.1277 86.0336 47.8114 83.5941 43.6774C82.1304 41.215 80.809 39.0463 80.6261 38.9108C80.1178 38.4363 79.1827 38.3686 78.5118 38.73Z" fill="#8B70F7"/>
</svg>
