<svg width="40" height="40" viewBox="0 0 40 40" fill="none" xmlns="http://www.w3.org/2000/svg">
<path fill-rule="evenodd" clip-rule="evenodd" d="M12 0C5.37258 0 0 5.37258 0 12V28C0 34.6274 5.37258 40 12 40H28C34.6274 40 40 34.6274 40 28V12C40 5.37258 34.6274 0 28 0H12ZM16.2561 10.2525C15.7757 10.733 15.7757 11.4737 16.2561 11.9141L24.7845 20.1021L16.2561 28.2501C15.7757 28.7105 15.7757 29.4913 16.2561 29.9317C16.7166 30.3521 17.4173 30.3521 17.9178 29.8917L26.5662 21.6036C27.4671 20.7628 27.4471 19.4014 26.5662 18.5806L17.9178 10.2926C17.4573 9.85213 16.6766 9.83211 16.2561 10.2525Z" fill="#86868B"/>
</svg>
