<svg width="15" height="16" viewBox="0 0 15 16" fill="none" xmlns="http://www.w3.org/2000/svg">
<path d="M6.6208 12.6103C7.11266 12.6103 7.55273 12.3514 7.83749 11.9113L13.5326 3.07095C13.7138 2.78619 13.8562 2.46261 13.8562 2.16491C13.8562 1.46596 13.2478 1 12.5877 1C12.1606 1 11.7852 1.23298 11.5005 1.69895L6.58197 9.59444L4.27804 6.70805C3.9674 6.30681 3.64382 6.15149 3.24257 6.15149C2.55657 6.15149 2 6.69511 2 7.39406C2 7.71764 2.12943 8.01534 2.36242 8.31304L5.35235 11.9243C5.71477 12.3773 6.11601 12.6103 6.6208 12.6103Z" fill="#8B03A1"/>
</svg>
