<svg width="108" height="108" viewBox="0 0 108 108" fill="none" xmlns="http://www.w3.org/2000/svg">
<path d="M30.2411 46.1216V44.916C30.2411 43.2592 28.8979 41.916 27.2411 41.916H6C4.34315 41.916 3 43.2592 3 44.916V102C3 103.657 4.34314 105 6 105H27.2411C28.8979 105 30.2411 103.657 30.2411 102V95.187M30.2411 46.1216C53.7339 39.4405 52.4766 21.2963 52.3074 6.25749C52.2927 4.9508 53.1413 3.77404 54.4152 3.48283C72.3954 -0.627394 69.7884 22.511 69.2388 34.722C69.1643 36.3772 70.5001 37.7104 72.1569 37.7104H97.6952C106.776 37.7104 108.073 57.3367 97.6952 57.3367H92.5064M30.2411 46.1216V95.187M92.5064 57.3367C105.478 57.3367 102.884 74.159 91.2092 72.7572M92.5064 57.3367H83.426M91.2092 72.7572C104.181 72.7572 100.29 88.1777 91.2092 88.1777M91.2092 72.7572H84.7233M91.2092 88.1777C101.498 89.5676 97.7607 101.981 88.8468 100.827C88.6948 100.808 88.5379 100.794 88.3846 100.794H37.8441C37.1236 100.794 36.4271 100.535 35.882 100.064L30.2411 95.187M91.2092 88.1777H86.0204" stroke="#8B70F7" stroke-width="6" stroke-linecap="round" stroke-linejoin="round"/>
</svg>
