<svg width="14" height="23" viewBox="0 0 14 23" fill="none" xmlns="http://www.w3.org/2000/svg">
<path d="M0.914063 11.4935C0.914063 11.0519 1.08024 10.6494 1.42537 10.3247L11.3831 0.428571C11.6643 0.142856 12.0094 -6.69388e-07 12.4313 -6.69388e-07C13.2621 -6.69388e-07 13.9141 0.662337 13.9141 1.49351C13.9141 1.90909 13.7479 2.2987 13.4667 2.58441L4.48043 11.4935L13.4667 20.4026C13.7479 20.7013 13.9141 21.0779 13.9141 21.4935C13.9141 22.3377 13.2621 23 12.4313 23C12.0222 23 11.6643 22.8442 11.3831 22.5584L1.42537 12.6623C1.08024 12.3247 0.914063 11.9351 0.914063 11.4935Z" fill="black"/>
</svg>
