<svg width="13" height="23" viewBox="0 0 13 23" fill="none" xmlns="http://www.w3.org/2000/svg">
<path d="M13 11.4935C13 11.0519 12.8338 10.6494 12.4887 10.3247L2.53097 0.428571C2.24975 0.142856 1.90462 -6.69388e-07 1.48279 -6.69388e-07C0.651917 -6.69388e-07 0 0.662337 0 1.49351C0 1.90909 0.166175 2.2987 0.447394 2.58441L9.43363 11.4935L0.447394 20.4026C0.166175 20.7013 0 21.0779 0 21.4935C0 22.3377 0.651917 23 1.48279 23C1.89184 23 2.24975 22.8442 2.53097 22.5584L12.4887 12.6623C12.8338 12.3247 13 11.9351 13 11.4935Z" fill="black"/>
</svg>
