<svg width="256" height="520" viewBox="0 0 256 520" fill="none" xmlns="http://www.w3.org/2000/svg">
<path fill-rule="evenodd" clip-rule="evenodd" d="M256 0H0V520H256V0ZM45 23C27.3269 23 13 37.3269 13 55V465C13 482.673 27.3269 497 45 497H211C228.673 497 243 482.673 243 465V55C243 37.3269 228.673 23 211 23H45Z" fill="white"/>
<path d="M246.543 61.121C246.493 56.9522 246.137 52.7926 245.478 48.676C244.883 45.1901 243.766 41.8137 242.166 38.6602C240.583 35.6024 238.522 32.8172 236.06 30.4097C233.582 27.9922 230.742 25.9765 227.642 24.4353C224.415 22.8508 220.975 21.745 217.429 21.1526C213.213 20.5095 208.957 20.1609 204.693 20.1094C202.57 20.0438 200.418 20 198.353 20H57.6069C55.5425 20 53.3905 20.0438 51.2677 20.1094C46.9982 20.1603 42.7374 20.5088 38.5164 21.1526C34.9706 21.7443 31.5301 22.8501 28.3036 24.4353C25.2003 25.9746 22.3574 27.9905 19.8781 30.4097C17.4161 32.8169 15.3548 35.6022 13.7723 38.6602C12.1537 41.8099 11.0223 45.1869 10.4167 48.676C9.75723 52.7926 9.40125 56.9522 9.35161 61.121C9.28596 63.2073 9.24948 65.3082 9.24219 67.3289V452.671C9.24219 454.692 9.28596 456.793 9.35161 458.879C9.40125 463.048 9.75723 467.207 10.4167 471.324C11.0223 474.813 12.1537 478.19 13.7723 481.34C15.3526 484.397 17.4114 487.183 19.8708 489.59C22.3501 492.009 25.193 494.025 28.2963 495.565C31.5228 497.15 34.9633 498.256 38.5091 498.847C42.718 499.49 46.9666 499.838 51.2239 499.891C53.3467 499.956 55.4987 499.993 57.5632 500H198.353C200.418 500 202.57 499.956 204.693 499.891C208.95 499.838 213.199 499.49 217.408 498.847C220.953 498.255 224.394 497.149 227.62 495.565C230.72 494.024 233.561 492.008 236.039 489.59C238.508 487.184 240.577 484.399 242.166 481.34C243.779 478.188 244.908 474.812 245.515 471.324C246.162 467.206 246.506 463.047 246.543 458.879C246.609 456.793 246.652 454.692 246.66 452.671V67.3289C246.682 65.3082 246.638 63.2073 246.543 61.121ZM233.412 459.966C233.412 461.17 233.412 462.454 233.332 463.708C233.201 465.823 232.858 467.92 232.311 469.967C231.396 473.636 229.509 476.991 226.847 479.677C224.139 482.301 220.767 484.14 217.094 484.995C215.039 485.585 212.93 485.969 210.798 486.14C210.069 486.184 209.237 486.206 208.223 486.206C207.435 486.206 206.575 486.206 205.619 486.206C204.401 486.206 203.022 486.206 201.395 486.206H54.0033C52.3692 486.206 50.9978 486.206 49.7796 486.206C48.8167 486.206 47.9632 486.206 47.1753 486.206C46.1613 486.206 45.3443 486.205 44.6002 486.14C42.4737 485.968 40.3696 485.585 38.3194 484.995C34.6283 484.163 31.2438 482.315 28.5492 479.659C25.8546 477.003 23.9576 473.646 23.0732 469.967C22.5181 467.941 22.1686 465.863 22.03 463.767C21.8841 461.461 21.8622 458.988 21.8622 454.334V64.659C21.8622 60.107 22.0081 57.4371 22.1395 55.2924C22.2441 53.1781 22.5569 51.0792 23.0732 49.0261C23.9976 45.3398 25.9044 41.9732 28.5904 39.2846C31.2764 36.596 34.6413 34.686 38.3267 33.7581C40.3844 33.2121 42.4904 32.8676 44.6148 32.7295H45.1109C47.3504 32.5909 49.889 32.4304 54.0106 32.4304H65.5656C66.422 32.3947 67.2759 32.5444 68.0691 32.8693C68.8623 33.1941 69.576 33.6864 70.1613 34.3125C70.5942 34.8318 70.9197 35.432 71.1188 36.0782C71.3179 36.7244 71.3867 37.4036 71.3212 38.0766C71.2806 38.994 71.384 39.9122 71.6276 40.7976V40.9362C72.0509 42.8533 73.0177 44.6077 74.4124 45.9895C75.8071 47.3712 77.5705 48.3217 79.4914 48.7271C80.9779 49.0036 82.4877 49.1356 83.9996 49.121L85.5753 49.1793H169.947L171.523 49.121C173.035 49.1352 174.545 49.0033 176.031 48.7271C177.953 48.317 179.716 47.3611 181.109 45.974C182.501 44.5869 183.463 42.8275 183.88 40.907V40.7684C184.127 39.8835 184.233 38.9652 184.194 38.0474C184.129 37.3745 184.197 36.6952 184.397 36.049C184.596 35.4029 184.921 34.8027 185.354 34.2833C185.939 33.6572 186.653 33.1649 187.446 32.8401C188.239 32.5153 189.093 32.3656 189.95 32.4012H201.381C205.502 32.4012 208.041 32.5617 210.288 32.7003H210.784C212.906 32.8389 215.009 33.1834 217.065 33.7289C220.748 34.6526 224.111 36.5585 226.796 39.2436C229.481 41.9286 231.387 45.292 232.311 48.9751C232.819 51.0243 233.127 53.118 233.23 55.2267C233.383 57.634 233.383 60.2529 233.383 64.586V453.481C233.383 454.874 233.383 456.085 233.383 457.128C233.383 458.171 233.449 459.149 233.412 459.966Z" fill="#AFAFAF"/>
<path d="M243.261 62.8881C243.212 58.8463 242.866 54.8136 242.226 50.8225C241.636 47.4406 240.539 44.1672 238.972 41.1131C237.44 38.14 235.443 35.431 233.056 33.0888C230.66 30.7564 227.913 28.8143 224.915 27.3331C221.775 25.7777 218.422 24.696 214.965 24.1234C210.882 23.4939 206.76 23.155 202.629 23.1094C200.565 23.0438 198.486 23.0073 196.48 23H59.8912C57.8851 23 55.7988 23.0438 53.7416 23.1094C49.611 23.155 45.4888 23.4939 41.4061 24.1234C37.961 24.6914 34.6183 25.7631 31.4851 27.304C28.4759 28.793 25.719 30.745 23.3149 33.0888C20.9259 35.4295 18.9284 38.1388 17.3988 41.1131C15.8284 44.1659 14.7313 47.4398 14.1453 50.8225C13.5053 54.8136 13.1591 58.8463 13.1094 62.8881C13.0438 64.9015 13.0073 66.9441 13 68.9064V450.426C13 452.388 13.0438 454.431 13.1094 456.444C13.1591 460.486 13.5053 464.519 14.1453 468.51C14.7313 471.893 15.8284 475.167 17.3988 478.219C18.9284 481.194 20.9259 483.903 23.3149 486.244C25.7167 488.59 28.4741 490.542 31.4851 492.029C34.6183 493.569 37.961 494.641 41.4061 495.209C45.4888 495.839 49.611 496.177 53.7416 496.223C55.7988 496.289 57.8851 496.325 59.8912 496.332H196.465C198.471 496.332 200.55 496.289 202.615 496.223C206.745 496.177 210.867 495.839 214.95 495.209C218.413 494.631 221.772 493.542 224.915 491.977C227.929 490.493 230.689 488.541 233.092 486.193C235.48 483.85 237.477 481.141 239.009 478.168C240.576 475.114 241.673 471.841 242.262 468.459C242.902 464.468 243.248 460.435 243.298 456.393C243.364 454.38 243.4 452.337 243.407 450.375V68.8553C243.364 66.9441 243.327 64.9015 243.261 62.8881ZM232.21 460.354C232.21 461.733 232.21 462.893 232.137 464.002C232.008 466.028 231.678 468.037 231.152 469.998C230.34 473.431 228.576 476.565 226.064 479.041C223.552 481.517 220.393 483.235 216.949 483.997C214.993 484.567 212.984 484.936 210.953 485.098C208.589 485.244 205.999 485.164 201.579 485.164H54.3617C49.9119 485.164 47.3149 485.244 44.9441 485.098C42.9105 484.937 40.8988 484.568 38.9404 483.997C35.5193 483.204 32.3777 481.497 29.8511 479.058C27.3642 476.553 25.5999 473.423 24.7447 469.998C24.2167 468.059 23.8843 466.073 23.7526 464.067C23.6067 461.719 23.5848 459.078 23.5848 454.701V64.4274C23.5848 60.0505 23.7088 57.4827 23.8547 55.1337C23.9592 53.1135 24.2572 51.108 24.7447 49.1447C25.6052 45.7112 27.3803 42.5752 29.8813 40.0704C32.3823 37.5655 35.5156 35.7855 38.9477 34.9198C40.9141 34.3947 42.9275 34.0648 44.9587 33.935C47.3149 33.7891 49.89 33.6067 54.2742 33.6067H65.7781C66.4364 33.5684 67.0952 33.6739 67.7087 33.9158C68.3221 34.1576 68.8756 34.5301 69.3307 35.0073C70.0602 35.8535 70.1113 36.7435 70.1185 37.8085C70.0793 38.8791 70.2048 39.9493 70.4906 40.9818C70.9704 43.1739 72.0697 45.182 73.6578 46.7675C75.2458 48.3529 77.2558 49.449 79.4486 49.9252C81.554 50.2658 83.6844 50.4269 85.817 50.4067H170.24C172.373 50.4265 174.503 50.2655 176.609 49.9252C178.802 49.4527 180.813 48.3578 182.401 46.7716C183.988 45.1854 185.085 43.1752 185.559 40.9818C185.851 39.9505 185.979 38.8796 185.939 37.8085C185.939 36.7435 185.939 35.8535 186.719 35.0073C187.176 34.5307 187.731 34.1587 188.346 33.9169C188.96 33.6752 189.62 33.5693 190.279 33.6067H201.666C206.043 33.6067 208.626 33.7891 210.982 33.935C213.008 34.0648 215.017 34.3946 216.978 34.9198C220.417 35.798 223.558 37.5814 226.075 40.0845C228.561 42.5905 230.325 45.7205 231.181 49.1447C231.67 51.105 231.966 53.1085 232.064 55.1264C232.21 57.4681 232.21 60.0432 232.21 64.4055V453.847C232.21 456.598 232.246 458.633 232.21 460.354Z" fill="#FBFBFD"/>
<path d="M9.98419 93.4375H8V111.594H9.98419V93.4375Z" fill="#AFAFAF"/>
<path d="M9.6487 129.629H9.97696V164.644H9.6487C9.43096 164.644 9.21538 164.601 9.0144 164.517C8.81343 164.433 8.63103 164.311 8.47775 164.156C8.32447 164.001 8.20334 163.818 8.12135 163.616C8.03936 163.415 7.99814 163.199 8.00006 162.981V131.278C8.00006 130.84 8.17376 130.421 8.48294 130.112C8.79212 129.803 9.21145 129.629 9.6487 129.629Z" fill="#AFAFAF"/>
<path d="M9.98419 208.521H9.65593C9.21675 208.521 8.79556 208.346 8.48501 208.036C8.17446 207.725 8 207.304 8 206.865V175.176C8 174.959 8.04288 174.744 8.12619 174.543C8.2095 174.343 8.33159 174.161 8.48545 174.008C8.63931 173.854 8.82192 173.733 9.02278 173.651C9.22365 173.568 9.43881 173.526 9.65593 173.527H9.98419V208.521Z" fill="#AFAFAF"/>
<path d="M246.016 196.601H246.344C246.561 196.602 246.776 196.56 246.977 196.477C247.178 196.395 247.361 196.274 247.514 196.121C247.668 195.967 247.79 195.785 247.874 195.585C247.957 195.384 248 195.169 248 194.952V142.429C248 141.99 247.825 141.569 247.515 141.258C247.204 140.948 246.783 140.773 246.344 140.773H246.016V196.601Z" fill="#AFAFAF"/>
<path d="M148.117 40.4973C148.114 39.6971 148.349 38.914 148.792 38.2474C149.234 37.5807 149.865 37.0604 150.604 36.7525C151.342 36.4446 152.156 36.3629 152.941 36.5178C153.726 36.6727 154.447 37.0572 155.014 37.6225C155.58 38.1878 155.966 38.9086 156.122 39.6934C156.278 40.4782 156.198 41.2918 155.892 42.031C155.585 42.7701 155.066 43.4017 154.4 43.8455C153.734 44.2894 152.951 44.5255 152.151 44.5241C151.083 44.5241 150.058 44.1001 149.301 43.3451C148.545 42.5902 148.119 41.566 148.117 40.4973Z" fill="#AFAFAF"/>
<path d="M139.555 42.1757H116.693C116.182 42.2265 115.669 42.1059 115.234 41.8328C115.027 41.6773 114.86 41.4756 114.744 41.2439C114.629 41.0121 114.569 40.7567 114.57 40.4979C114.569 40.24 114.628 39.9854 114.744 39.7547C114.859 39.524 115.027 39.3238 115.234 39.1702C115.667 38.8919 116.181 38.7685 116.693 38.82H139.577C140.089 38.7685 140.603 38.8919 141.036 39.1702C141.244 39.3234 141.413 39.5234 141.53 39.754C141.646 39.9847 141.707 40.2394 141.707 40.4979C141.707 40.7572 141.646 41.0128 141.529 41.2446C141.413 41.4763 141.244 41.6777 141.036 41.8328C140.595 42.1107 140.073 42.2315 139.555 42.1757Z" fill="#AFAFAF"/>
</svg>
