<?xml version="1.0" encoding="UTF-8"?> <svg xmlns="http://www.w3.org/2000/svg" width="22" height="12" viewBox="0 0 22 12" fill="none"> <path d="M11.3828 11.9844C11.793 11.9727 12.168 11.8203 12.4727 11.4922L21.3789 2.375C21.6367 2.11719 21.7773 1.78906 21.7773 1.40234C21.7773 0.628906 21.168 0.0078125 20.3945 0.0078125C20.0195 0.0078125 19.6562 0.160156 19.3867 0.429688L11.3945 8.64453L3.37891 0.429688C3.10938 0.171875 2.75781 0.0078125 2.37109 0.0078125C1.59766 0.0078125 0.988281 0.628906 0.988281 1.40234C0.988281 1.78906 1.12891 2.11719 1.38672 2.375L10.3047 11.4922C10.6211 11.8203 10.9727 11.9844 11.3828 11.9844Z" fill="#1D1D1F"></path> </svg> 