<?xml version="1.0" encoding="UTF-8"?> <svg xmlns="http://www.w3.org/2000/svg" width="199" height="37" viewBox="0 0 199 37" fill="none"> <rect width="199" height="37" rx="16" fill="#1D1D1F"></rect> <path d="M42.5762 28.5553C43.0171 28.8526 43.6118 28.7296 43.9399 28.2374C45.7446 25.5406 46.8213 22.1876 46.8213 18.4962C46.8213 14.815 45.7139 11.4723 43.9399 8.76522C43.6118 8.26278 43.0171 8.14999 42.5762 8.44735C42.0942 8.75497 42.0225 9.34969 42.3608 9.8829C43.9297 12.2618 44.9038 15.2252 44.9038 18.4962C44.9038 21.7672 43.9297 24.7511 42.3608 27.1197C42.0225 27.6529 42.0942 28.2476 42.5762 28.5553ZM20.438 22.8643H23.3398C23.4219 22.8643 23.5039 22.8848 23.5654 22.9464L28.0771 26.9762C28.6104 27.4581 29.0205 27.6734 29.5537 27.6734C30.3125 27.6734 30.8765 27.1197 30.8765 26.3609V10.7032C30.8765 9.94442 30.3125 9.32919 29.5435 9.32919C29.0103 9.32919 28.6514 9.56503 28.0771 10.0777L23.5654 14.087C23.5039 14.1485 23.4219 14.169 23.3398 14.169H20.438C18.9307 14.169 18.1719 14.9586 18.1719 16.5479V20.4854C18.1719 22.0748 18.9307 22.8643 20.438 22.8643ZM38.4541 25.7867C38.9155 26.0738 39.4795 25.9713 39.7974 25.4996C41.1304 23.6129 41.9097 21.0904 41.9097 18.4962C41.9097 15.9019 41.1406 13.359 39.7974 11.4928C39.4795 11.0211 38.9155 10.9083 38.4541 11.2057C37.9722 11.5133 37.9004 12.108 38.2593 12.6412C39.3564 14.2408 39.9819 16.3223 39.9819 18.4962C39.9819 20.6598 39.3359 22.7413 38.2593 24.3512C37.9106 24.8844 37.9722 25.4791 38.4541 25.7867ZM20.6123 21.0597C20.2637 21.0597 20.0996 20.8956 20.0996 20.547V16.4864C20.0996 16.1378 20.2637 15.9737 20.6123 15.9737H23.8115C24.0884 15.9737 24.2935 15.9224 24.5396 15.7071L28.6411 11.9644C28.6924 11.9234 28.7437 11.8824 28.8052 11.8824C28.8872 11.8824 28.9487 11.9439 28.9487 12.0362V24.9766C28.9487 25.0689 28.8872 25.1305 28.8154 25.1305C28.7539 25.1305 28.7026 25.0997 28.6411 25.0484L24.5396 21.3263C24.3037 21.1212 24.0884 21.0597 23.8115 21.0597H20.6123ZM34.3628 23.0489C34.7935 23.3258 35.3677 23.2335 35.6753 22.7823C36.4956 21.6851 36.9878 20.1163 36.9878 18.4962C36.9878 16.8761 36.4956 15.3175 35.6753 14.1998C35.3677 13.7589 34.7935 13.6563 34.3628 13.9537C33.8706 14.2818 33.7783 14.8765 34.168 15.4508C34.7422 16.2608 35.0601 17.3477 35.0601 18.4962C35.0601 19.6344 34.7319 20.7213 34.168 21.5416C33.7783 22.1261 33.8706 22.7105 34.3628 23.0489Z" fill="#FBFBFD"></path> <path d="M60.6104 24.5H65.2837C67.832 24.5 69.3428 23.2466 69.3428 21.1465V21.1299C69.3428 19.5527 68.3052 18.4321 66.6699 18.2246V18.0918C67.8237 17.8843 68.7368 16.7554 68.7368 15.5186V15.502C68.7368 13.6758 67.3921 12.522 65.1924 12.522H60.6104V24.5ZM64.877 13.8418C66.3628 13.8418 67.2261 14.5474 67.2261 15.7593V15.7759C67.2261 17.0376 66.3047 17.6851 64.4951 17.6851H62.1045V13.8418H64.877ZM64.9185 18.9717C66.8276 18.9717 67.8071 19.6772 67.8071 21.0552V21.0718C67.8071 22.4497 66.8608 23.1802 65.0596 23.1802H62.1045V18.9717H64.9185ZM71.3583 24.5H75.1684C77.0941 24.5 78.2313 23.4873 78.2313 21.9351V21.9185C78.2313 20.8809 77.5092 20.084 76.372 19.9263V19.7935C77.2104 19.6191 77.8329 18.7808 77.8329 17.8926V17.876C77.8329 16.4731 76.8451 15.5518 75.1518 15.5518H71.3583V24.5ZM72.8026 19.3369V16.7471H74.9442C75.9486 16.7471 76.3969 17.2617 76.3969 18.0254V18.042C76.3969 18.8887 75.8739 19.3369 74.7118 19.3369H72.8026ZM72.8026 23.3047V20.5322H74.8363C76.1229 20.5322 76.7621 20.9473 76.7621 21.8936V21.9102C76.7621 22.8066 76.206 23.3047 75.1103 23.3047H72.8026ZM81.0438 13.8252C81.5916 13.8252 82.0398 13.377 82.0398 12.8291C82.0398 12.2812 81.5916 11.833 81.0438 11.833C80.4959 11.833 80.0477 12.2812 80.0477 12.8291C80.0477 13.377 80.4959 13.8252 81.0438 13.8252ZM80.3133 24.5H81.7576V15.5518H80.3133V24.5ZM85.6823 24.5V18.1333H85.84L88.654 24.251H89.7663L92.5886 18.1333H92.7463V24.5H94.1906V15.5518H92.5139L89.3098 22.4912H89.177L85.9895 15.5518H84.238V24.5H85.6823ZM98.5387 20.4243L102.042 24.5H103.893L99.7091 19.7686L103.735 15.5518H102L98.5387 19.2954H98.0821V15.5518H96.6378V24.5H98.0821V20.4243H98.5387ZM111.362 24.5H112.806V15.5518H111.362V19.2539H106.929V15.5518H105.485V24.5H106.929V20.4492H111.362V24.5ZM116.017 27.6377C117.602 27.6377 118.341 27.0566 119.08 25.0479L122.575 15.5518H121.056L118.607 22.9146H118.474L116.017 15.5518H114.473L117.785 24.5083L117.619 25.0396C117.295 26.0688 116.797 26.4424 115.975 26.4424C115.776 26.4424 115.552 26.4341 115.378 26.4009V27.5879C115.577 27.6211 115.826 27.6377 116.017 27.6377ZM130.392 15.5518H123.154V16.7471H126.051V24.5H127.495V16.7471H130.392V15.5518ZM132.076 24.5H133.52L137.945 17.8262H138.077V24.5H139.522V15.5518H138.077L133.653 22.2256H133.52V15.5518H132.076V24.5ZM149.396 24.666C151.48 24.666 152.916 23.5288 152.916 21.8687V21.8521C152.916 20.856 152.293 20.1421 151.115 19.8848V19.752C152.003 19.5444 152.592 18.7227 152.592 17.8179V17.8013C152.592 16.3735 151.447 15.3857 149.446 15.3857C147.62 15.3857 146.309 16.2988 146.101 17.7349L146.093 17.793H147.504L147.512 17.7515C147.653 17.0376 148.425 16.5811 149.446 16.5811C150.592 16.5811 151.181 17.1455 151.181 17.9092V17.9258C151.181 18.8555 150.542 19.312 149.396 19.312H148.002V20.5073H149.396C150.766 20.5073 151.497 20.9556 151.497 21.9268V21.9434C151.497 22.8315 150.716 23.4707 149.396 23.4707C148.309 23.4707 147.512 23.0059 147.33 22.2754L147.313 22.209H145.844L145.852 22.2754C146.035 23.7197 147.487 24.666 149.396 24.666ZM154.915 24.5H158.725C160.651 24.5 161.788 23.4873 161.788 21.9351V21.9185C161.788 20.8809 161.066 20.084 159.929 19.9263V19.7935C160.767 19.6191 161.39 18.7808 161.39 17.8926V17.876C161.39 16.4731 160.402 15.5518 158.708 15.5518H154.915V24.5ZM156.359 19.3369V16.7471H158.501C159.505 16.7471 159.954 17.2617 159.954 18.0254V18.042C159.954 18.8887 159.431 19.3369 158.268 19.3369H156.359ZM156.359 23.3047V20.5322H158.393C159.68 20.5322 160.319 20.9473 160.319 21.8936V21.9102C160.319 22.8066 159.763 23.3047 158.667 23.3047H156.359ZM164.268 27.6377C165.854 27.6377 166.593 27.0566 167.331 25.0479L170.826 15.5518H169.307L166.858 22.9146H166.725L164.268 15.5518H162.724L166.036 24.5083L165.87 25.0396C165.547 26.0688 165.049 26.4424 164.227 26.4424C164.028 26.4424 163.804 26.4341 163.629 26.4009V27.5879C163.828 27.6211 164.077 27.6377 164.268 27.6377ZM174.394 20.4243L177.897 24.5H179.748L175.564 19.7686L179.59 15.5518H177.855L174.394 19.2954H173.937V15.5518H172.493V24.5H173.937V20.4243H174.394Z" fill="#FBFBFD"></path> </svg> 