<svg width="587" height="111" viewBox="0 0 587 111" fill="none" xmlns="http://www.w3.org/2000/svg">
<rect x="1.5" y="1.5" width="584" height="108" rx="46.5" fill="#F5F5F7"/>
<path d="M112.383 61.1715L112.414 30.2561C112.414 27.9797 110.697 26.134 108.397 26.134C106.834 26.134 105.73 26.8416 104.013 28.3796L91.1673 39.8538L95.0611 43.7298L105.7 34.0398C105.853 33.9168 106.006 33.7935 106.221 33.7935C106.435 33.7935 106.619 33.9783 106.619 34.2552V55.3575L112.383 61.1715ZM122.593 84.1506C123.543 85.1043 125.107 85.1043 126.026 84.1506C126.977 83.1969 127.008 81.6588 126.026 80.7054L72.435 26.9338C71.4845 25.9802 69.8902 25.9802 68.94 26.9338C68.02 27.8567 68.02 29.4563 68.94 30.4099L122.593 84.1506ZM81.1728 66.7395H89.8798C90.125 66.7395 90.3702 66.8316 90.5544 66.9855L104.044 79.0749C105.638 80.5206 106.865 81.1668 108.459 81.1668C109.9 81.1668 111.096 80.49 111.801 79.2594L106.803 74.2761L93.283 62.0328C92.6697 61.4484 92.2099 61.3254 91.382 61.3254H81.6939C80.6516 61.3254 80.1915 60.8331 80.1915 59.7873V47.5134L75.7155 43.053C74.8571 44.1603 74.3973 45.7293 74.3973 47.7903V59.6028C74.3973 64.3707 76.6965 66.7395 81.1728 66.7395Z" fill="black" fill-opacity="0.56"/>
<path d="M181.831 73.5H195.851C203.496 73.5 208.028 69.7397 208.028 63.4395V63.3896C208.028 58.6582 204.916 55.2964 200.01 54.6738V54.2754C203.471 53.6528 206.21 50.2661 206.21 46.5557V46.5059C206.21 41.0273 202.176 37.5659 195.577 37.5659H181.831V73.5ZM194.631 41.5254C199.088 41.5254 201.678 43.6421 201.678 47.2778V47.3276C201.678 51.1128 198.914 53.0552 193.485 53.0552H186.313V41.5254H194.631ZM194.755 56.915C200.483 56.915 203.421 59.0317 203.421 63.1655V63.2153C203.421 67.3491 200.583 69.5405 195.179 69.5405H186.313V56.915H194.755ZM214.075 73.5H218.408L231.681 53.4785H232.079V73.5H236.412V46.6553H232.079L218.806 66.6768H218.408V46.6553H214.075V73.5ZM248.087 73.5V54.3999H248.56L257.002 72.7529H260.339L268.806 54.3999H269.279V73.5H273.612V46.6553H268.581L258.969 67.4736H258.571L249.008 46.6553H243.754V73.5H248.087ZM286.656 61.2729L297.165 73.5H302.718L290.167 59.3057L302.245 46.6553H297.04L286.656 57.8862H285.286V46.6553H280.953V73.5H285.286V61.2729H286.656ZM325.125 73.5H329.458V46.6553H325.125V57.7617H311.827V46.6553H307.494V73.5H311.827V61.3477H325.125V73.5ZM339.091 82.9131C343.847 82.9131 346.063 81.1699 348.28 75.1436L358.764 46.6553H354.207L346.86 68.7437H346.462L339.091 46.6553H334.459L344.395 73.5249L343.897 75.1187C342.926 78.2065 341.432 79.3271 338.966 79.3271C338.369 79.3271 337.696 79.3022 337.173 79.2026V82.7637C337.771 82.8633 338.518 82.9131 339.091 82.9131ZM382.217 46.6553H360.502V50.2412H369.193V73.5H373.526V50.2412H382.217V46.6553ZM387.267 73.5H391.6L404.873 53.4785H405.272V73.5H409.605V46.6553H405.272L391.999 66.6768H391.6V46.6553H387.267V73.5ZM439.229 73.998C445.48 73.998 449.788 70.5864 449.788 65.606V65.5562C449.788 62.5679 447.92 60.4263 444.384 59.6543V59.2559C447.049 58.6333 448.817 56.168 448.817 53.4536V53.4038C448.817 49.1206 445.38 46.1572 439.379 46.1572C433.9 46.1572 429.966 48.8965 429.343 53.2046L429.318 53.3789H433.552L433.576 53.2544C434 51.1128 436.316 49.7432 439.379 49.7432C442.815 49.7432 444.583 51.4365 444.583 53.7275V53.7773C444.583 56.5664 442.666 57.936 439.229 57.936H435.046V61.522H439.229C443.338 61.522 445.53 62.8667 445.53 65.7803V65.8301C445.53 68.4946 443.189 70.4121 439.229 70.4121C435.967 70.4121 433.576 69.0176 433.029 66.8262L432.979 66.627H428.571L428.596 66.8262C429.144 71.1592 433.502 73.998 439.229 73.998ZM455.785 73.5H467.215C472.992 73.5 476.404 70.4619 476.404 65.8052V65.7554C476.404 62.6426 474.237 60.252 470.826 59.7788V59.3804C473.341 58.8574 475.208 56.3423 475.208 53.6777V53.6279C475.208 49.4194 472.245 46.6553 467.165 46.6553H455.785V73.5ZM460.118 58.0107V50.2412H466.542C469.556 50.2412 470.9 51.7852 470.9 54.0762V54.126C470.9 56.666 469.332 58.0107 465.845 58.0107H460.118ZM460.118 69.9141V61.5967H466.219C470.079 61.5967 471.996 62.8418 471.996 65.6807V65.7305C471.996 68.4199 470.328 69.9141 467.041 69.9141H460.118ZM483.845 82.9131C488.601 82.9131 490.818 81.1699 493.034 75.1436L503.518 46.6553H498.961L491.614 68.7437H491.216L483.845 46.6553H479.213L489.149 73.5249L488.651 75.1187C487.68 78.2065 486.186 79.3271 483.72 79.3271C483.123 79.3271 482.45 79.3022 481.927 79.2026V82.7637C482.525 82.8633 483.272 82.9131 483.845 82.9131ZM514.221 61.2729L524.73 73.5H530.283L517.732 59.3057L529.81 46.6553H524.605L514.221 57.8862H512.851V46.6553H508.518V73.5H512.851V61.2729H514.221Z" fill="black" fill-opacity="0.56"/>
<rect x="1.5" y="1.5" width="584" height="108" rx="46.5" stroke="#E5E5E5" stroke-width="3"/>
</svg>
