<svg width="595" height="111" viewBox="0 0 595 111" fill="none" xmlns="http://www.w3.org/2000/svg">
<rect x="1.5" y="1.5" width="592" height="108" rx="46.5" fill="#F5F5F7"/>
<path d="M127.736 85.6658C129.059 86.5579 130.843 86.1887 131.828 84.7122C137.242 76.6218 140.472 66.5628 140.472 55.4885C140.472 44.4451 137.149 34.4168 131.828 26.2957C130.843 24.7883 129.059 24.45 127.736 25.342C126.291 26.2649 126.075 28.0491 127.09 29.6487C131.797 36.7854 134.719 45.6755 134.719 55.4885C134.719 65.3015 131.797 74.2532 127.09 81.3591C126.075 82.9587 126.291 84.7429 127.736 85.6658ZM61.3218 68.593H70.0273C70.2734 68.593 70.5195 68.6545 70.7041 68.8391L84.2393 80.9285C85.8389 82.3743 87.0693 83.0203 88.6689 83.0203C90.9453 83.0203 92.6372 81.3591 92.6372 79.0828V32.1096C92.6372 29.8333 90.9453 27.9876 88.6382 27.9876C87.0386 27.9876 85.9619 28.6951 84.2393 30.2332L70.7041 42.261C70.5195 42.4456 70.2734 42.5071 70.0273 42.5071H61.3218C56.7998 42.5071 54.5234 44.8757 54.5234 49.6438V61.4563C54.5234 66.2244 56.7998 68.593 61.3218 68.593ZM115.37 77.3601C116.754 78.2214 118.446 77.9138 119.4 76.4988C123.399 70.8386 125.737 63.2712 125.737 55.4885C125.737 47.7058 123.43 40.0769 119.4 34.4783C118.446 33.0632 116.754 32.7249 115.37 33.617C113.924 34.5398 113.709 36.324 114.786 37.9236C118.077 42.7224 119.954 48.967 119.954 55.4885C119.954 61.9793 118.016 68.2239 114.786 73.0535C113.74 74.6531 113.924 76.4373 115.37 77.3601ZM61.8447 63.179C60.7988 63.179 60.3066 62.6868 60.3066 61.6409V49.4592C60.3066 48.4133 60.7988 47.9212 61.8447 47.9212H71.4424C72.2729 47.9212 72.8882 47.7673 73.6265 47.1213L85.9312 35.8933C86.085 35.7703 86.2388 35.6472 86.4233 35.6472C86.6694 35.6472 86.854 35.8318 86.854 36.1087V74.9299C86.854 75.2068 86.6694 75.3914 86.4541 75.3914C86.2695 75.3914 86.1157 75.2991 85.9312 75.1453L73.6265 63.9788C72.9189 63.3635 72.2729 63.179 71.4424 63.179H61.8447ZM103.096 69.1467C104.388 69.9773 106.111 69.7004 107.034 68.3469C109.495 65.0554 110.971 60.3489 110.971 55.4885C110.971 50.6282 109.495 45.9524 107.034 42.5994C106.111 41.2766 104.388 40.969 103.096 41.8611C101.62 42.8455 101.343 44.6296 102.512 46.3523C104.234 48.7825 105.188 52.0432 105.188 55.4885C105.188 58.9031 104.204 62.1638 102.512 64.6248C101.343 66.3782 101.62 68.1316 103.096 69.1467Z" fill="black" fill-opacity="0.5"/>
<path d="M181.831 73.5H195.851C203.496 73.5 208.028 69.7397 208.028 63.4395V63.3896C208.028 58.6582 204.916 55.2964 200.01 54.6738V54.2754C203.471 53.6528 206.21 50.2661 206.21 46.5557V46.5059C206.21 41.0273 202.176 37.5659 195.577 37.5659H181.831V73.5ZM194.631 41.5254C199.088 41.5254 201.678 43.6421 201.678 47.2778V47.3276C201.678 51.1128 198.914 53.0552 193.485 53.0552H186.313V41.5254H194.631ZM194.755 56.915C200.483 56.915 203.421 59.0317 203.421 63.1655V63.2153C203.421 67.3491 200.583 69.5405 195.179 69.5405H186.313V56.915H194.755ZM214.075 73.5H225.505C231.282 73.5 234.694 70.4619 234.694 65.8052V65.7554C234.694 62.6426 232.528 60.252 229.116 59.7788V59.3804C231.631 58.8574 233.499 56.3423 233.499 53.6777V53.6279C233.499 49.4194 230.535 46.6553 225.455 46.6553H214.075V73.5ZM218.408 58.0107V50.2412H224.833C227.846 50.2412 229.191 51.7852 229.191 54.0762V54.126C229.191 56.666 227.622 58.0107 224.135 58.0107H218.408ZM218.408 69.9141V61.5967H224.509C228.369 61.5967 230.286 62.8418 230.286 65.6807V65.7305C230.286 68.4199 228.618 69.9141 225.331 69.9141H218.408ZM243.131 41.4756C244.775 41.4756 246.12 40.1309 246.12 38.4873C246.12 36.8438 244.775 35.499 243.131 35.499C241.488 35.499 240.143 36.8438 240.143 38.4873C240.143 40.1309 241.488 41.4756 243.131 41.4756ZM240.94 73.5H245.273V46.6553H240.94V73.5ZM257.047 73.5V54.3999H257.52L265.962 72.7529H269.299L277.766 54.3999H278.239V73.5H282.572V46.6553H277.542L267.929 67.4736H267.531L257.968 46.6553H252.714V73.5H257.047ZM295.616 61.2729L306.125 73.5H311.678L299.127 59.3057L311.205 46.6553H306L295.616 57.8862H294.246V46.6553H289.913V73.5H294.246V61.2729H295.616ZM334.085 73.5H338.418V46.6553H334.085V57.7617H320.788V46.6553H316.455V73.5H320.788V61.3477H334.085V73.5ZM348.051 82.9131C352.807 82.9131 355.024 81.1699 357.24 75.1436L367.724 46.6553H363.167L355.821 68.7437H355.422L348.051 46.6553H343.419L353.355 73.5249L352.857 75.1187C351.886 78.2065 350.392 79.3271 347.926 79.3271C347.329 79.3271 346.656 79.3022 346.133 79.2026V82.7637C346.731 82.8633 347.478 82.9131 348.051 82.9131ZM391.177 46.6553H369.462V50.2412H378.153V73.5H382.486V50.2412H391.177V46.6553ZM396.228 73.5H400.561L413.834 53.4785H414.232V73.5H418.565V46.6553H414.232L400.959 66.6768H400.561V46.6553H396.228V73.5ZM448.189 73.998C454.44 73.998 458.748 70.5864 458.748 65.606V65.5562C458.748 62.5679 456.88 60.4263 453.344 59.6543V59.2559C456.009 58.6333 457.777 56.168 457.777 53.4536V53.4038C457.777 49.1206 454.34 46.1572 448.339 46.1572C442.86 46.1572 438.926 48.8965 438.303 53.2046L438.278 53.3789H442.512L442.537 53.2544C442.96 51.1128 445.276 49.7432 448.339 49.7432C451.775 49.7432 453.543 51.4365 453.543 53.7275V53.7773C453.543 56.5664 451.626 57.936 448.189 57.936H444.006V61.522H448.189C452.298 61.522 454.49 62.8667 454.49 65.7803V65.8301C454.49 68.4946 452.149 70.4121 448.189 70.4121C444.927 70.4121 442.537 69.0176 441.989 66.8262L441.939 66.627H437.531L437.556 66.8262C438.104 71.1592 442.462 73.998 448.189 73.998ZM464.745 73.5H476.175C481.952 73.5 485.364 70.4619 485.364 65.8052V65.7554C485.364 62.6426 483.197 60.252 479.786 59.7788V59.3804C482.301 58.8574 484.169 56.3423 484.169 53.6777V53.6279C484.169 49.4194 481.205 46.6553 476.125 46.6553H464.745V73.5ZM469.078 58.0107V50.2412H475.503C478.516 50.2412 479.861 51.7852 479.861 54.0762V54.126C479.861 56.666 478.292 58.0107 474.805 58.0107H469.078ZM469.078 69.9141V61.5967H475.179C479.039 61.5967 480.956 62.8418 480.956 65.6807V65.7305C480.956 68.4199 479.288 69.9141 476.001 69.9141H469.078ZM492.805 82.9131C497.561 82.9131 499.778 81.1699 501.994 75.1436L512.478 46.6553H507.921L500.575 68.7437H500.176L492.805 46.6553H488.173L498.109 73.5249L497.611 75.1187C496.64 78.2065 495.146 79.3271 492.681 79.3271C492.083 79.3271 491.411 79.3022 490.888 79.2026V82.7637C491.485 82.8633 492.232 82.9131 492.805 82.9131ZM523.181 61.2729L533.69 73.5H539.243L526.692 59.3057L538.77 46.6553H533.566L523.181 57.8862H521.812V46.6553H517.479V73.5H521.812V61.2729H523.181Z" fill="black" fill-opacity="0.56"/>
<rect x="1.5" y="1.5" width="592" height="108" rx="46.5" stroke="#E5E5E5" stroke-width="3"/>
</svg>
