<?xml version="1.0" encoding="UTF-8"?> <svg xmlns="http://www.w3.org/2000/svg" width="199" height="36" viewBox="0 0 199 36" fill="none"> <rect width="199" height="36" rx="16" fill="#1D1D1F"></rect> <path d="M38.9792 19.8906L38.9895 9.58545C38.9895 8.82666 38.4153 8.21143 37.6462 8.21143C37.1233 8.21143 36.7542 8.44727 36.1799 8.95996L31.8835 12.7847L33.1858 14.0767L36.7439 10.8467C36.7952 10.8057 36.8464 10.7646 36.9182 10.7646C36.99 10.7646 37.0515 10.8262 37.0515 10.9185V17.9526L38.9792 19.8906ZM42.3938 27.5503C42.7117 27.8682 43.2346 27.8682 43.5422 27.5503C43.8601 27.2324 43.8704 26.7197 43.5422 26.4019L25.6184 8.47803C25.3005 8.16016 24.7673 8.16016 24.4495 8.47803C24.1418 8.78564 24.1418 9.31885 24.4495 9.63672L42.3938 27.5503ZM28.5408 21.7466H31.4529C31.5349 21.7466 31.6169 21.7773 31.6785 21.8286L36.1902 25.8584C36.7234 26.3403 37.1335 26.5557 37.6667 26.5557C38.1487 26.5557 38.5486 26.3301 38.7844 25.9199L37.113 24.2588L32.5911 20.1777C32.386 19.9829 32.2322 19.9419 31.9553 19.9419H28.7151C28.3665 19.9419 28.2126 19.7778 28.2126 19.4292V15.3379L26.7156 13.8511C26.4285 14.2202 26.2747 14.7432 26.2747 15.4302V19.3677C26.2747 20.957 27.0437 21.7466 28.5408 21.7466Z" fill="#FBFBFD"></path> <path d="M57.6104 24H62.2837C64.832 24 66.3428 22.7466 66.3428 20.6465V20.6299C66.3428 19.0527 65.3052 17.9321 63.6699 17.7246V17.5918C64.8237 17.3843 65.7368 16.2554 65.7368 15.0186V15.002C65.7368 13.1758 64.3921 12.022 62.1924 12.022H57.6104V24ZM61.877 13.3418C63.3628 13.3418 64.2261 14.0474 64.2261 15.2593V15.2759C64.2261 16.5376 63.3047 17.1851 61.4951 17.1851H59.1045V13.3418H61.877ZM61.9185 18.4717C63.8276 18.4717 64.8071 19.1772 64.8071 20.5552V20.5718C64.8071 21.9497 63.8608 22.6802 62.0596 22.6802H59.1045V18.4717H61.9185ZM68.3583 24H69.8026L74.227 17.3262H74.3598V24H75.8041V15.0518H74.3598L69.9354 21.7256H69.8026V15.0518H68.3583V24ZM79.6956 24V17.6333H79.8533L82.6673 23.751H83.7796L86.6019 17.6333H86.7596V24H88.2039V15.0518H86.5271L83.323 21.9912H83.1902L80.0027 15.0518H78.2513V24H79.6956ZM92.552 19.9243L96.0549 24H97.906L93.7224 19.2686L97.7482 15.0518H96.0134L92.552 18.7954H92.0954V15.0518H90.6511V24H92.0954V19.9243H92.552ZM105.375 24H106.819V15.0518H105.375V18.7539H100.942V15.0518H99.4981V24H100.942V19.9492H105.375V24ZM110.03 27.1377C111.616 27.1377 112.354 26.5566 113.093 24.5479L116.588 15.0518H115.069L112.62 22.4146H112.487L110.03 15.0518H108.486L111.798 24.0083L111.632 24.5396C111.309 25.5688 110.811 25.9424 109.989 25.9424C109.79 25.9424 109.565 25.9341 109.391 25.9009V27.0879C109.59 27.1211 109.839 27.1377 110.03 27.1377ZM124.406 15.0518H117.167V16.2471H120.064V24H121.509V16.2471H124.406V15.0518ZM126.089 24H127.533L131.958 17.3262H132.091V24H133.535V15.0518H132.091L127.666 21.7256H127.533V15.0518H126.089V24ZM143.41 24.166C145.493 24.166 146.929 23.0288 146.929 21.3687V21.3521C146.929 20.356 146.307 19.6421 145.128 19.3848V19.252C146.016 19.0444 146.606 18.2227 146.606 17.3179V17.3013C146.606 15.8735 145.46 14.8857 143.46 14.8857C141.633 14.8857 140.322 15.7988 140.114 17.2349L140.106 17.293H141.517L141.525 17.2515C141.667 16.5376 142.439 16.0811 143.46 16.0811C144.605 16.0811 145.194 16.6455 145.194 17.4092V17.4258C145.194 18.3555 144.555 18.812 143.41 18.812H142.015V20.0073H143.41C144.779 20.0073 145.51 20.4556 145.51 21.4268V21.4434C145.51 22.3315 144.73 22.9707 143.41 22.9707C142.322 22.9707 141.525 22.5059 141.343 21.7754L141.326 21.709H139.857L139.865 21.7754C140.048 23.2197 141.501 24.166 143.41 24.166ZM148.928 24H152.738C154.664 24 155.801 22.9873 155.801 21.4351V21.4185C155.801 20.3809 155.079 19.584 153.942 19.4263V19.2935C154.78 19.1191 155.403 18.2808 155.403 17.3926V17.376C155.403 15.9731 154.415 15.0518 152.722 15.0518H148.928V24ZM150.373 18.8369V16.2471H152.514C153.519 16.2471 153.967 16.7617 153.967 17.5254V17.542C153.967 18.3887 153.444 18.8369 152.282 18.8369H150.373ZM150.373 22.8047V20.0322H152.406C153.693 20.0322 154.332 20.4473 154.332 21.3936V21.4102C154.332 22.3066 153.776 22.8047 152.68 22.8047H150.373ZM158.282 27.1377C159.867 27.1377 160.606 26.5566 161.345 24.5479L164.839 15.0518H163.32L160.871 22.4146H160.739L158.282 15.0518H156.738L160.05 24.0083L159.884 24.5396C159.56 25.5688 159.062 25.9424 158.24 25.9424C158.041 25.9424 157.817 25.9341 157.642 25.9009V27.0879C157.842 27.1211 158.091 27.1377 158.282 27.1377ZM168.407 19.9243L171.91 24H173.761L169.577 19.2686L173.603 15.0518H171.868L168.407 18.7954H167.95V15.0518H166.506V24H167.95V19.9243H168.407Z" fill="#FBFBFD"></path> </svg> 