<svg width="7" height="13" viewBox="0 0 7 13" fill="none" xmlns="http://www.w3.org/2000/svg">
<path d="M6.94189 6.41553C6.93555 6.19336 6.85303 6.00293 6.68164 5.83154L1.74316 1.00098C1.59717 0.861328 1.42578 0.785156 1.21631 0.785156C0.791016 0.785156 0.460938 1.11523 0.460938 1.54053C0.460938 1.74365 0.543457 1.93408 0.689453 2.08008L5.13281 6.41553L0.689453 10.751C0.543457 10.897 0.460938 11.0811 0.460938 11.2905C0.460938 11.7158 0.791016 12.0459 1.21631 12.0459C1.41943 12.0459 1.59717 11.9697 1.74316 11.8301L6.68164 6.99316C6.85938 6.82812 6.94189 6.6377 6.94189 6.41553Z" fill="#8B03A1"/>
</svg>
